<svg style="fill: #E8EEEA;" xmlns="http://www.w3.org/2000/svg" width="64" height="28" viewBox="0 0 64 28"><path d="M14.0169 0.0429688C6.39367 0.0429688 0 6.29931 0 13.7588C0 21.4589 6.39367 27.4746 14.0169 27.4746C21.886 27.4746 28.0338 21.2183 28.0338 13.7588C28.0338 6.29931 21.886 0.0429688 14.0169 0.0429688ZM1.47546 13.7588C1.47546 12.0744 1.72137 10.39 2.4591 8.70559L8.60686 24.8277C4.42639 22.9027 1.47546 18.812 1.47546 13.7588ZM14.0169 26.2715C12.7873 26.2715 11.5578 26.0308 10.3282 25.7902L14.0169 14.9619L17.9515 25.309C17.9515 25.309 17.9515 25.309 17.9515 25.5496C16.9678 26.0308 15.4924 26.2715 14.0169 26.2715ZM15.7383 7.98371C16.476 7.98371 17.2137 7.98371 17.2137 7.98371C17.9515 7.98371 17.7055 7.02119 17.2137 7.02119C17.2137 7.02119 15.2464 7.26182 13.771 7.26182C12.5414 7.26182 10.3282 7.02119 10.3282 7.02119C9.5905 7.02119 9.5905 7.98371 10.3282 7.98371C10.3282 7.98371 11.066 7.98371 11.5578 7.98371L13.5251 13.2775L10.8201 21.4589L6.39367 7.98371C7.1314 7.98371 7.86913 7.98371 7.86913 7.98371C8.60686 7.98371 8.36095 7.02119 7.86913 7.02119C7.86913 7.02119 5.90185 7.26182 4.42639 7.26182C4.18048 7.26182 3.93457 7.26182 3.68866 7.26182C5.90185 3.89302 9.83642 1.72737 14.2628 1.72737C17.4596 1.72737 20.6565 2.93051 22.8697 4.85554C22.8697 4.85554 22.8697 4.85554 22.6238 4.85554C21.3942 4.85554 20.4106 5.81805 20.4106 7.02119C20.4106 7.98371 20.9024 8.94622 21.6401 9.90874C22.1319 10.6306 22.6238 11.5931 22.6238 13.2775C22.6238 14.24 22.3778 15.6838 21.6401 17.3682L20.4106 21.2183L15.7383 7.98371ZM20.4106 24.5871L24.3451 13.7588C25.0829 12.0744 25.3288 10.6306 25.3288 9.42748C25.3288 8.94622 25.3288 8.46497 25.3288 8.22434C26.3124 9.90874 26.8042 12.0744 26.8042 14.24C26.8042 18.3307 24.0992 22.4214 20.4106 24.5871Z"></path><path d="M40.8204 7.50391L37.8694 15.6853C37.6235 16.6478 37.3776 17.6103 37.1317 18.5728C37.1317 17.6103 36.8858 16.6478 36.394 15.6853L33.443 7.50391H29.7544L35.1644 21.2197H39.3449L44.7549 7.50391H40.8204V7.50391Z" ></path><path d="M46.48 7.50391L45.4963 10.1508V21.2197H49.185V7.50391H46.48Z" ></path><path d="M62.7082 9.18675C61.7246 7.74298 60.495 7.26172 58.7737 7.26172C57.0523 7.26172 55.8227 7.9836 54.8391 9.42737H54.5932L54.1014 7.74298H50.9045V27.9558H54.5932V21.6994C54.5932 21.4588 54.5932 20.7369 54.3473 19.7744H54.5932C55.5768 20.9775 56.8064 21.4588 58.2818 21.4588C59.2655 21.4588 60.2491 21.2182 61.2328 20.4963C61.9705 20.015 62.7082 19.0525 63.2 18.09C63.6919 16.8869 63.9378 15.6837 63.9378 14.2399C64.1837 12.0743 63.6919 10.3899 62.7082 9.18675ZM57.79 18.5713C56.8064 18.5713 56.0687 18.3306 55.5768 17.6087C55.085 16.8869 54.8391 15.9243 54.8391 14.4806V13.9993C54.8391 12.7962 55.085 11.8337 55.5768 11.1118C56.0687 10.6305 56.8064 10.1493 57.5441 10.1493C58.5277 10.1493 59.0196 10.3899 59.5114 11.1118C60.0032 11.8337 60.2491 12.7962 60.2491 14.2399C60.495 17.1275 59.5114 18.5713 57.79 18.5713Z" ></path></svg> 